<?xml version="1.0" encoding="utf-8"?>
<!-- Generator: IcoMoon  -->
<!DOCTYPE svg PUBLIC "-//W3C//DTD SVG 1.1//EN" "http://www.w3.org/Graphics/SVG/1.1/DTD/svg11.dtd">
<svg width="512" height="512" viewBox="0 0 512 512" data-tags="help, question, _new" xmlns="http://www.w3.org/2000/svg" xmlns:xlink="http://www.w3.org/1999/xlink"><path d="M 256.00,0.00C 114.615,0.00,0.00,114.615,0.00,256.00s 114.613,256.00, 256.00,256.00c 141.385,0.00, 256.00-114.615, 256.00-256.00S 397.385,0.00, 256.00,0.00z M 256.00,480.00
			C 132.288,480.00, 32.00,379.712, 32.00,256.00S 132.288,32.00, 256.00,32.00s 224.00,100.288, 224.00,224.00S 379.712,480.00, 256.00,480.00zM 224.00,352.00L 288.00,352.00L 288.00,416.00L 224.00,416.00zM 352.00,128.00L 160.00,128.00 l0.00,64.00 l 160.00,0.00 l0.00,32.00 l-96.00,64.00l0.00,32.00 l 64.00,0.00 l 96.00-64.00l0.00-96.00 C 384.00,142.327, 369.673,128.00, 352.00,128.00z"></path></svg>