<?xml version="1.0" encoding="utf-8"?>
<!-- Generator: IcoMoon  -->
<!DOCTYPE svg PUBLIC "-//W3C//DTD SVG 1.1//EN" "http://www.w3.org/Graphics/SVG/1.1/DTD/svg11.dtd">
<svg width="500" height="500" viewBox="0 0 500 500" data-tags="help, question" xmlns="http://www.w3.org/2000/svg" xmlns:xlink="http://www.w3.org/1999/xlink"><path d="M 352.476,55.879c-28.508-20.563-64.308-30.848-107.394-30.848c-32.793,0.00-60.449,7.246-82.942,21.699
		c-35.656,22.656-54.621,61.114-56.906,115.364l 82.648,0.00 c0.00-15.793, 4.617-31.015, 13.836-45.684
		c 9.223-14.66, 24.871-21.985, 46.941-21.985c 22.442,0.00, 37.903,5.953, 46.355,17.844c 8.465,11.902, 12.699,25.086, 12.699,39.551
		c0.00,12.563-6.309,24.082-13.906,34.551c-4.179,6.098-9.691,11.707-16.535,16.844c0.00,0.00-44.828,28.75-64.50,51.844
		c-11.422,13.402-12.441,33.461-13.453,62.242c-0.07,2.047, 0.711,6.277, 7.883,6.277s 57.906,0.00, 64.285,0.00
		s 7.711-4.758, 7.793-6.813c 0.449-10.489, 1.633-15.836, 3.535-21.887c 3.617-11.43, 13.441-21.414, 24.469-29.985l 22.754-15.703
		c 20.535-15.996, 36.918-29.129, 44.148-39.414c 12.364-16.933, 21.047-37.781, 21.047-62.528
		C 395.235,106.898, 380.976,76.438, 352.476,55.879z M 243.754,373.117c-28.488-0.848-51.992,18.86-52.886,49.758
		c-0.886,30.887, 21.465,51.289, 49.953,52.129c 29.746,0.883, 52.609-18.183, 53.504-49.074
		C 295.215,395.031, 273.50,373.996, 243.754,373.117z"></path></svg>