<?xml version="1.0" encoding="utf-8"?> <!-- Generator: IcoMoon.io --> <!DOCTYPE svg PUBLIC "-//W3C//DTD SVG 1.1//EN" "http://www.w3.org/Graphics/SVG/1.1/DTD/svg11.dtd"> <svg width="500.00000000000006" height="500" viewBox="0 0 500 500" xmlns="http://www.w3.org/2000/svg" xmlns:xlink="http://www.w3.org/1999/xlink" fill="#000000"><path d="M 385.05,360.075l-65.65-188.40c-18.075-51.85-74.175-80.50-127.325-66.35L 142.675,9.475C 138.20,0.80, 127.725-2.525, 119.25,2.05 C 110.775,6.65, 107.525,17.40, 112.00,26.075l 48.225,93.575c-38.425,25.50-58.40,73.825-45.75,119.325l 53.50,192.40 c 15.05,54.075, 77.00,81.625, 139.275,62.575C 368.725,472.375, 403.525,413.025, 385.05,360.075z M 222.475,223.075C 204.25,229.05, 184.70,218.775, 178.85,200.05 C 173.00,181.35, 183.05,161.325, 201.30,155.35c 18.25-6.00, 37.80,4.30, 43.65,23.00S 240.75,217.075, 222.475,223.075z" ></path></svg>